<svg id="Vuelos" xmlns="http://www.w3.org/2000/svg" xmlns:xlink="http://www.w3.org/1999/xlink" width="190" height="253" viewBox="0 0 190 253">
  <defs>
    <clipPath id="clip-path">
      <path id="Path_444" data-name="Path 444" d="M97.923,245.08h0A81.423,81.423,0,0,1,16.5,163.657V109.871a81.423,81.423,0,1,1,162.847,0v53.786A81.423,81.423,0,0,1,97.923,245.08Z" transform="translate(-16.5 -28.448)" fill="none" stroke="#000" stroke-miterlimit="10" stroke-width="1"/>
    </clipPath>
    <clipPath id="clip-path-2">
      <rect id="Rectangle_2" data-name="Rectangle 2" width="190" height="253" transform="translate(0 0)" fill="none"/>
    </clipPath>
    <clipPath id="clip-path-3">
      <path id="Rectangle_4" data-name="Rectangle 4" d="M80.752,0h0A80.752,80.752,0,0,1,161.5,80.752v54.443a80.752,80.752,0,0,1-80.752,80.752h0A80.752,80.752,0,0,1,0,135.194V80.752A80.752,80.752,0,0,1,80.752,0Z" fill="none"/>
    </clipPath>
  </defs>
  <g id="Group_64" data-name="Group 64" transform="translate(0 0)">
    <g id="Mask_Group_1" data-name="Mask Group 1" transform="translate(14.267 21.391)" clip-path="url(#clip-path)">
      <rect id="Rectangle_21" data-name="Rectangle 21" width="176" height="216" transform="translate(-0.267 0.609)" fill="#deecf2"/>
      <path id="Path_441" data-name="Path 441" d="M149.99,24.689c-.312-2.97-6.733-4.559-7.957-5.016s-4.4-4.23-18.791-3.026c-4.857.406-18.767,4.764-36.406,10.314L44.421,10.3,35.784,0l-4,.407,1.306,11.222,33.2,21.754c-11.5,3.542-23.6,7.144-35.269,10.265L6.723,26.761,0,28.594,19.125,53.028c22.63-.233,86.533-1.815,126.536-21.98,4.334-2.6,4.425-5.445,4.329-6.359" transform="translate(-14.581 78.756)" fill="#adc0c7"/>
      <path id="Path_442" data-name="Path 442" d="M239.141,204.777q-.73,0-1.448.045a4.939,4.939,0,0,1-5.078-3.685,39.855,39.855,0,0,0-74.543-6.825,4.942,4.942,0,0,1-6.206,2.509,28.076,28.076,0,0,0-37.081,19.9,4.943,4.943,0,0,0,4.808,6.072H254.349a4.936,4.936,0,0,0,4.124-7.655,23.184,23.184,0,0,0-19.332-10.365" transform="translate(-105.555 -6.165)" fill="#fff"/>
      <path id="Path_443" data-name="Path 443" d="M398.577,177.774q-.383,0-.761.024a2.61,2.61,0,0,1-2.67-2.023A21.135,21.135,0,0,0,374.9,159.51a20.9,20.9,0,0,0-18.934,12.518,2.557,2.557,0,0,1-3.263,1.377,14.143,14.143,0,0,0-5.128-.959,14.909,14.909,0,0,0-14.364,11.886,2.688,2.688,0,0,0,2.528,3.334h70.836a2.716,2.716,0,0,0,2.167-4.2,12.063,12.063,0,0,0-10.162-5.69" transform="translate(-251.715 -36.628)" fill="#fff"/>
    </g>
    <g id="Group_47" data-name="Group 47" transform="translate(0)">
      <g id="Group_2" data-name="Group 2" transform="translate(0 0)">
        <g id="Group_1" data-name="Group 1" transform="translate(0 0)" clip-path="url(#clip-path-2)">
          <path id="Path_1" data-name="Path 1" d="M90.786,246.907h0A90.286,90.286,0,0,1,.5,156.622V101.786a90.286,90.286,0,1,1,180.571,0v54.836A90.286,90.286,0,0,1,90.786,246.907Z" transform="translate(4.905 0.504)" fill="none" stroke="#24cad2" stroke-miterlimit="10" stroke-width="3"/>
          <line id="Line_1" data-name="Line 1" x2="26.808" transform="translate(82.397 35.821)" fill="#fff"/>
          <path id="Path_509" data-name="Path 509" d="M97.923,245.08h0A81.423,81.423,0,0,1,16.5,163.657V109.871a81.423,81.423,0,1,1,162.847,0v53.786A81.423,81.423,0,0,1,97.923,245.08Z" transform="translate(-2.232 -7.057)" fill="none" stroke="#24cad2" stroke-miterlimit="10" stroke-width="3"/>
        </g>
      </g>
      <g id="Group_4" data-name="Group 4" transform="translate(14.938 21.734)">
        <g id="Mask_Group_3" data-name="Mask Group 3" transform="translate(0 0)" clip-path="url(#clip-path-3)">
          <path id="Path_484" data-name="Path 484" d="M0,0H175.7V201.532H0Z" transform="translate(-9.341 -17.334)" fill="#24cad2" stroke="#24cad2" stroke-width="2"/>
          <line id="Line_3" data-name="Line 3" x2="27.135" transform="translate(67.296 160.928)" fill="none" stroke="#035f7e" stroke-linecap="round" stroke-miterlimit="10" stroke-width="8"/>
        </g>
      </g>
    </g>
  </g>
</svg>
