<svg id="Destinos" xmlns="http://www.w3.org/2000/svg" xmlns:xlink="http://www.w3.org/1999/xlink" width="189" height="244" viewBox="0 0 189 244">
    <defs>
      <clipPath id="clip-path">
        <path id="Path_466" data-name="Path 466" d="M97.923,245.08h0A81.423,81.423,0,0,1,16.5,163.657V109.871a81.423,81.423,0,1,1,162.847,0v53.786A81.423,81.423,0,0,1,97.923,245.08Z" transform="translate(-16.5 -28.448)" fill="none" stroke="#000" stroke-miterlimit="10" stroke-width="1"/>
      </clipPath>
      <clipPath id="clip-path-2">
        <rect id="Rectangle_13" data-name="Rectangle 13" width="169.672" height="194.324" fill="#99bcaf"/>
      </clipPath>
      <clipPath id="clip-path-3">
        <rect id="Rectangle_2" data-name="Rectangle 2" width="189" height="244" transform="translate(0 0)" fill="none"/>
      </clipPath>
      <clipPath id="clip-path-4">
        <path id="Path_486" data-name="Path 486" d="M81.046,0h0a81.046,81.046,0,0,1,81.046,81.046v53.537A81.046,81.046,0,0,1,0,134.583V81.046A81.046,81.046,0,0,1,81.046,0Z" fill="none"/>
      </clipPath>
    </defs>
    <g id="Group_6" data-name="Group 6" transform="translate(12.986 14.814)" clip-path="url(#clip-path)">
      <g id="Rectangle_22" data-name="Rectangle 22" transform="translate(-11.986 7.186)" fill="#deecf2" stroke="#707070" stroke-width="1">
        <rect width="188" height="239" stroke="none"/>
        <rect x="0.5" y="0.5" width="187" height="238" fill="none"/>
      </g>
      <g id="Group_22" data-name="Group 22" transform="translate(21.325 47.482)">
        <g id="Group_21" data-name="Group 21" clip-path="url(#clip-path-2)">
          <path id="Path_449" data-name="Path 449" d="M72.526,88.646S61.26,85.922,51.108,92.484l.743,1.61-3.219-1.239S42.69,97.683,41.7,100.9l1.361,1.857H40.337l-2.1,4.086,3.219,2.228-4.086,1.114s-1.981,5.571-1.857,7.924l2.1.866-2.11,1.734s-2.966,15.351,4.339,25.751l3.343-13.742-.743-1.61,1.114-.371,4.952-10.524-1.733-1.361,2.6-.5,1.362-1.981s-1.61-2.229-2.848-2.1,4.457-.372,4.457-.372l5.447-7.18-2.6-2.476,4.581.248,4.952-5.943-1.362-2.1,2.476-.124s2.848-1.362,6.686-7.676" transform="translate(-15.572 -39.295)" fill="#99bcaf"/>
          <path id="Path_450" data-name="Path 450" d="M57.655,81.6S15.686,79.247,1.572,92c0,0,.743-3.885,2.972-5.285H6.029l-.867-2.267.5-.743,2.352.619L6.772,82.095l1.486-1.056s7.057-.925,7.552-1.42S10.115,79,10.115,79s4.457-4.581,13.247-6.19l6.252,2.848L25.466,72.81a34.413,34.413,0,0,1,12.133,0c.743.124,3.1,2.228,3.1,2.228l.124-1.61s7.676-.5,16.837,8.171" transform="translate(-0.701 -32.249)" fill="#99bcaf"/>
          <path id="Path_451" data-name="Path 451" d="M56.954,67.256s-9.78-5.633-13.309-6.9L44.852,57.2l-2.6,2.878-5.478-2.129v-2.7l-1.486,1.765-4.735-.836s.557-3.343,0-3.25-1.64,2.971-1.64,2.971l-8.759-1.486-.818-2.321v2.135S4.647,51.255.469,48.377s20.613-10.771,33.612-7.428l-1.207,2.135,3.25-1.486s5.571,1.3,7.893,3.25c0,0-3.343,1.393-2.507,3.157,0,0,5.107-2.136,7.15-1.579S60.42,54.1,56.954,67.256" transform="translate(0 -17.905)" fill="#99bcaf"/>
          <path id="Path_452" data-name="Path 452" d="M77.3,49.351s-5.324-15.723-9.285-21.913l1.361-1.362h-3.1l-2.1-5.571,2.1-.619H62.194l-3.1-4.952,1.857-2.352-3.467,1.362L54.27,10.6l1.361-2.476-2.6,1.238L45.6.325S56.127-1.656,65.413,4.163L65.288,8l1.486-2.6S74.7,12.21,77.3,17.286l-.372,4.946,2.724-2.594S85.2,41.614,77.3,49.351" transform="translate(-20.344 0)" fill="#99bcaf"/>
          <path id="Path_453" data-name="Path 453" d="M98.684,87.769c-2.458,1.035-5.2,6-5.138,9.347.127,6.707.919,6.434,2.55,6.128,1.695-.317,6.834-.928,6.834-.928l-3.505,3.714,3.505,4.457,3.059-.928-1.671,2.786L108.4,116.4h3.528l-1.3,3.561,12.813,14.113,1.3-5.757-2.6-.928,2.6-.557v-5.386s-3.528-1.114-5.014-.557,2.786-1.671,5.942-1.3V116.4s-2.228-1.333-3.9,0c0,0,.743-2.2,3.9-2.567v-8.171l-7.614-2.786,6.5-.186s-.743-1.857-2.043-5.386l-7.8-.743,5.571-.743s-6.314-14.485-21.6-8.047" transform="translate(-41.73 -38.418)" fill="#99bcaf"/>
          <path id="Path_454" data-name="Path 454" d="M102.823,74.1s37.945-10.895,65.244-6.252c0,0,.279-1.764-3.807-3.9l-2.321.464L162.96,63.3s-2.879-2.043-3.807-2.043a1.48,1.48,0,0,0-1.3.835l-.093-1.55-2.228-1.513L152.1,60.545s.186-2.164,1.672-2.442l-3.807-1.114a4.27,4.27,0,0,0-2.507,1.486c-.65,1.114.557-1.486.557-1.486S143.74,55.317,143,55.5s-2.321,5.042-2.321,5.042h-1.3l1.114-5.057-6.128.386-.743,3.157-.557-3.543S128.7,56.8,127.4,57.081s-3.064,4.828-3.064,4.828l.093-4.271-3.993,2.321-1.393,4.835-.928-4.25-2.043,1.55.186,2.7-1.95-1.678A19.035,19.035,0,0,0,102.823,74.1" transform="translate(-45.869 -24.753)" fill="#99bcaf"/>
          <path id="Path_455" data-name="Path 455" d="M101.7,53.8l10.925-9.309V41.172l1.7,1.362,2.724-3.838-.619-3.512h1.857l3.219-2.678V29.658l1.981.867,5.819-6.066V20.993l1.238,2.847s9.038-7.552,10.647-13.866c0,0-22.037.124-31.074,13.495h3.466l-3.838,1.238-3.8,5.447,2.192,1.734H103.8s-6.19,10.647-2.1,21.913" transform="translate(-44.746 -4.449)" fill="#99bcaf"/>
          <path id="Path_456" data-name="Path 456" d="M86.664,86.33l7.9-3.714s17.915,33.983,22.743,53.389l1.3.836,1.31,5.942h.825l.743,5.571h.743l.928,5.757h.743l.743,6.964h.65l.743,5.014h1.021v6.128l1.671,1.114v5.942l.928.557v4.643h.464v6.964H131.6l-.743,5.386h.743l-.557,7.985h1.021l-1.021,4.55,1.021.743-.65,21.077h-7.8s-2.135-27.205-6.964-34.17a5.473,5.473,0,0,1,3.26,2.6l-3.91-11.328a16.239,16.239,0,0,1,5.386,5.2l-1.476-6.5.733-.557s-3.963-7.8-2.228-7.8a7.789,7.789,0,0,1,1.114.092l-1.021-3.992.929-.371-2.879-6.779,1.3-.371s-2.228-5.014-2.414-7.057l-.928-3.25.65-.65-2.136-5.85.464-.743s-3.157-5.942-3.343-7.335l.464-.464-1.253-3.064.6-.279-2.321-6.314.557-.464-4.271-6.964.65-.279-1.392-2.414.928-.557-4.086-7.057V113.6l-2.228-4.7.557-1.021-2.693-6.314S91.65,92.42,86.664,86.33" transform="translate(-38.661 -36.855)" fill="#99bcaf"/>
          <path id="Path_457" data-name="Path 457" d="M224.754,142.841s8.937-2.161,16.991,3.045l-.589,1.277,2.554-.982s4.714,3.83,5.5,6.384l-1.08,1.473h2.16l1.67,3.241-2.553,1.768,3.241.884s1.571,4.42,1.473,6.286l-1.67.687,1.674,1.375s2.352,12.179-3.442,20.428l-2.652-10.9.589-1.277-.884-.295-3.929-8.348,1.375-1.08-2.062-.393-1.081-1.571s1.277-1.767,2.259-1.669-3.536-.295-3.536-.295l-4.321-5.7,2.062-1.964-3.634.2-3.928-4.714,1.08-1.669-1.964-.1s-2.259-1.08-5.3-6.089" transform="translate(-100.263 -63.523)" fill="#61917f"/>
          <path id="Path_458" data-name="Path 458" d="M224.754,137.251s33.294-1.866,44.49,8.25c0,0-.589-3.082-2.357-4.192h-1.179l.687-1.8-.393-.589-1.866.491.982-1.768-1.178-.837s-5.6-.734-5.991-1.127,4.518-.491,4.518-.491-3.536-3.634-10.509-4.91L247,132.537l3.29-2.259a27.3,27.3,0,0,0-9.625,0,11.374,11.374,0,0,0-2.455,1.768l-.1-1.277s-6.089-.393-13.357,6.482" transform="translate(-100.263 -57.933)" fill="#61917f"/>
          <path id="Path_459" data-name="Path 459" d="M224.281,125.873s7.758-4.469,10.558-5.475l-.958-2.5,2.062,2.283,4.346-1.689v-2.141l1.179,1.4,3.757-.663s-.442-2.652,0-2.578,1.3,2.357,1.3,2.357l6.948-1.179.649-1.841v1.694s11.652-2.357,14.967-4.641-16.353-8.544-26.665-5.892l.958,1.694-2.578-1.178s-4.42,1.031-6.261,2.578c0,0,2.652,1.105,1.988,2.5,0,0-4.051-1.694-5.671-1.252s-9.33,6.089-6.58,16.524" transform="translate(-99.79 -46.555)" fill="#61917f"/>
          <path id="Path_460" data-name="Path 460" d="M222.041,111.668s4.223-12.473,7.366-17.384l-1.08-1.08h2.455l1.669-4.42-1.669-.491h3.241l2.455-3.928L235.005,82.5l2.75,1.08,2.554-2.652-1.081-1.964,2.063.982,5.892-7.17s-8.348-1.571-15.714,3.045l.1,3.045L230.389,76.8s-6.286,5.4-8.348,9.428l.295,3.924L220.175,88.1s-4.4,17.433,1.866,23.571" transform="translate(-97.55 -32.351)" fill="#61917f"/>
          <path id="Path_461" data-name="Path 461" d="M207.51,142.145c1.95.821,4.126,4.763,4.076,7.415-.1,5.321-.728,5.1-2.022,4.862-1.345-.251-5.422-.737-5.422-.737l2.781,2.946-2.781,3.536-2.426-.737,1.325,2.21-3.241,3.215H197l1.031,2.825-10.165,11.2-1.031-4.567,2.063-.737-2.063-.442v-4.272s2.8-.884,3.978-.442-2.21-1.325-4.714-1.031v-2.531s1.768-1.057,3.094,0a3.517,3.517,0,0,0-3.094-2.036v-6.482l6.04-2.209-5.156-.147s.589-1.473,1.621-4.272l6.187-.589-4.42-.589s5.009-11.491,17.138-6.384" transform="translate(-83.019 -62.827)" fill="#61917f"/>
          <path id="Path_462" data-name="Path 462" d="M183.067,131.305s-30.1-8.643-51.757-4.96c0,0-.221-1.4,3.02-3.094l1.842.368-.81-.883s2.283-1.621,3.02-1.621a1.175,1.175,0,0,1,1.031.663l.074-1.23,1.767-1.2,2.726,1.2s-.147-1.716-1.326-1.937l3.02-.884a3.389,3.389,0,0,1,1.989,1.179c.516.883-.442-1.179-.442-1.179s3.388-1.326,3.978-1.179,1.841,4,1.841,4h1.031l-.884-4.011,4.862.306.589,2.5.442-2.81s3.462,1.042,4.493,1.263,2.431,3.83,2.431,3.83l-.074-3.388,3.168,1.841,1.1,3.836.737-3.372,1.621,1.23-.147,2.141,1.547-1.331a15.1,15.1,0,0,1,9.109,8.716" transform="translate(-58.576 -51.987)" fill="#61917f"/>
          <path id="Path_463" data-name="Path 463" d="M199.522,115.2l-8.667-7.385V105.18l-1.351,1.081-2.16-3.045.491-2.786h-1.473l-2.553-2.125V96.047l-1.571.687-4.616-4.812v-2.75l-.982,2.259s-7.17-5.991-8.446-11c0,0,17.482.1,24.651,10.705h-2.75l3.045.982,3.015,4.322-1.739,1.375h3.438s4.91,8.446,1.669,17.384" transform="translate(-75.03 -35.88)" fill="#61917f"/>
          <path id="Path_464" data-name="Path 464" d="M208.564,141l-6.266-2.946s-14.211,26.959-18.042,42.353l-1.031.663-1.039,4.714h-.655l-.589,4.42h-.589l-.737,4.567h-.589l-.589,5.525h-.516l-.589,3.978h-.81v4.862l-1.326.883v4.714l-.737.442v3.683h-.368v5.525h-1.179l.589,4.272h-.589l.442,6.335h-.81l.81,3.609-.81.589.515,16.72h6.188s1.694-21.582,5.525-27.106a4.343,4.343,0,0,0-2.586,2.062l3.1-8.986a12.873,12.873,0,0,0-4.272,4.125l1.17-5.156-.582-.442s3.144-6.188,1.768-6.188a6.166,6.166,0,0,0-.884.074l.81-3.167-.737-.295,2.284-5.377-1.031-.295a29.164,29.164,0,0,0,1.915-5.6l.737-2.578-.516-.516,1.694-4.641-.368-.589s2.5-4.714,2.651-5.819l-.368-.368.994-2.431-.479-.221,1.842-5.009-.442-.368,3.388-5.524-.516-.221,1.105-1.915-.737-.442,3.241-5.6v-.689l1.768-3.73-.442-.81,2.136-5.009A62.136,62.136,0,0,1,208.564,141" transform="translate(-76.972 -61.588)" fill="#61917f"/>
        </g>
      </g>
      <path id="Path_465" data-name="Path 465" d="M393.949,176.482q-.356,0-.707.023a2.425,2.425,0,0,1-2.481-1.88,19.64,19.64,0,0,0-18.818-15.115,19.423,19.423,0,0,0-17.595,11.633,2.376,2.376,0,0,1-3.032,1.28,13.144,13.144,0,0,0-4.765-.891A13.854,13.854,0,0,0,333.2,182.577a2.5,2.5,0,0,0,2.349,3.1h65.827a2.524,2.524,0,0,0,2.014-3.905,11.21,11.21,0,0,0-9.443-5.288" transform="translate(-308.49 -1.595)" fill="#fff"/>
      <path id="Path_487" data-name="Path 487" d="M393.949,176.482q-.356,0-.707.023a2.425,2.425,0,0,1-2.481-1.88,19.64,19.64,0,0,0-18.818-15.115,19.423,19.423,0,0,0-17.595,11.633,2.376,2.376,0,0,1-3.032,1.28,13.144,13.144,0,0,0-4.765-.891A13.854,13.854,0,0,0,333.2,182.577a2.5,2.5,0,0,0,2.349,3.1h65.827a2.524,2.524,0,0,0,2.014-3.905,11.21,11.21,0,0,0-9.443-5.288" transform="translate(-379.81 -88.746)" fill="#fff"/>
    </g>
    <g id="Group_6-2" data-name="Group 6" transform="translate(0 0)">
      <g id="Group_2" data-name="Group 2" transform="translate(0 0)">
        <g id="Group_1" data-name="Group 1" transform="translate(0)" clip-path="url(#clip-path-3)">
          <path id="Path_1" data-name="Path 1" d="M90.786,246.907h0A90.286,90.286,0,0,1,.5,156.622V101.786a90.286,90.286,0,1,1,180.571,0v54.836A90.286,90.286,0,0,1,90.786,246.907Z" transform="translate(3.624 -6.074)" fill="none" stroke="#24cad2" stroke-miterlimit="10" stroke-width="3"/>
          <path id="Path_2" data-name="Path 2" d="M97.923,245.08h0A81.423,81.423,0,0,1,16.5,163.657V109.871a81.423,81.423,0,1,1,162.847,0v53.786A81.423,81.423,0,0,1,97.923,245.08Z" transform="translate(-3.513 -13.634)" fill="none" stroke="#24cad2" stroke-miterlimit="10" stroke-width="3"/>
          <line id="Line_1" data-name="Line 1" x2="26.808" transform="translate(81.116 29.244)" fill="#fff"/>
        </g>
      </g>
      <g id="Group_4" data-name="Group 4" transform="translate(13.364 15.316)">
        <g id="Mask_Group_5" data-name="Mask Group 5" transform="translate(0)" clip-path="url(#clip-path-4)">
          <rect id="Rectangle_3" data-name="Rectangle 3" width="179.874" height="199.119" transform="translate(-8.891 -17.275)" fill="#24cad2" stroke="#24cad2" stroke-miterlimit="10" stroke-width="2"/>
          <line id="Line_3" data-name="Line 3" x2="27.088" transform="translate(67.614 158.131)" fill="none" stroke="#035f7e" stroke-linecap="round" stroke-miterlimit="10" stroke-width="8"/>
        </g>
      </g>
    </g>
  </svg>
  