<svg id="Flota" xmlns="http://www.w3.org/2000/svg" xmlns:xlink="http://www.w3.org/1999/xlink" width="187" height="244" viewBox="0 0 187 244">
    <defs>
      <clipPath id="clip-path">
        <path id="Path_448" data-name="Path 448" d="M97.923,245.08h0A81.423,81.423,0,0,1,16.5,163.657V109.871a81.423,81.423,0,1,1,162.847,0v53.786A81.423,81.423,0,0,1,97.923,245.08Z" transform="translate(-16.5 -28.448)" fill="none" stroke="#000" stroke-miterlimit="10" stroke-width="1"/>
      </clipPath>
      <clipPath id="clip-path-2">
        <rect id="Rectangle_12" data-name="Rectangle 12" width="151.347" height="172.969" fill="#adc0c7"/>
      </clipPath>
      <clipPath id="clip-path-3">
        <rect id="Rectangle_2" data-name="Rectangle 2" width="187" height="244" transform="translate(0 0)" fill="none"/>
      </clipPath>
      <clipPath id="clip-path-4">
        <path id="Rectangle_4" data-name="Rectangle 4" d="M81,0h0a81,81,0,0,1,81,81v53.51a81,81,0,0,1-81,81h0a81,81,0,0,1-81-81V81A81,81,0,0,1,81,0Z" fill="none"/>
      </clipPath>
    </defs>
    <g id="Group_52" data-name="Group 52" transform="translate(0 0)">
      <g id="Mask_Group_2" data-name="Mask Group 2" transform="translate(11.987 14.814)" clip-path="url(#clip-path)">
        <g id="Rectangle_23" data-name="Rectangle 23" transform="translate(-10.986 -18.814)" fill="#deecf2" stroke="#707070" stroke-width="1">
          <rect width="186" height="256" stroke="none"/>
          <rect x="0.5" y="0.5" width="185" height="255" fill="none"/>
        </g>
        <g id="Group_20" data-name="Group 20" transform="translate(5.75 68.838)">
          <g id="Group_19" data-name="Group 19" transform="translate(0 0)" clip-path="url(#clip-path-2)">
            <path id="Path_445" data-name="Path 445" d="M151.349,117.073v-6.966l-17.777-16V82.239a3.484,3.484,0,1,0-6.968,0v5.6L108.946,71.944V61.939a3.483,3.483,0,1,0-6.966,0v3.736L87.461,52.608C86.731,25.026,82.583,0,75.674,0S64.617,25.026,63.887,52.608L49.366,65.675V61.939a3.482,3.482,0,1,0-6.964,0V71.944L24.745,87.836v-5.6a3.483,3.483,0,1,0-6.966,0V94.106L0,110.107v6.966L64.659,87.981c1.667,29.443,5.01,59.362,5.01,59.362l-22.1,19.7.6,4.924,24.142-4.924,3.365,5.926,3.363-5.926,24.143,4.924.6-4.924-22.1-19.7s3.345-29.919,5.012-59.362Z" transform="translate(0 0)" fill="#adc0c7"/>
          </g>
        </g>
        <path id="Path_446" data-name="Path 446" d="M419.552,183.628c-.337,0-.673.011-1,.032a3.446,3.446,0,0,1-3.525-2.671c-3.134-12.364-13.917-21.479-26.741-21.479a27.6,27.6,0,0,0-25,16.531,3.377,3.377,0,0,1-4.309,1.819,18.677,18.677,0,0,0-6.771-1.267,19.687,19.687,0,0,0-18.968,15.7,3.549,3.549,0,0,0,3.338,4.4h93.541a3.587,3.587,0,0,0,2.862-5.55,15.929,15.929,0,0,0-13.419-7.514" transform="translate(-231.297 -88.375)" fill="#fff"/>
        <path id="Path_447" data-name="Path 447" d="M393.949,176.482q-.356,0-.707.023a2.425,2.425,0,0,1-2.481-1.88,19.64,19.64,0,0,0-18.818-15.115,19.423,19.423,0,0,0-17.595,11.633,2.376,2.376,0,0,1-3.032,1.28,13.144,13.144,0,0,0-4.765-.891A13.854,13.854,0,0,0,333.2,182.577a2.5,2.5,0,0,0,2.349,3.1h65.827a2.524,2.524,0,0,0,2.014-3.905,11.21,11.21,0,0,0-9.443-5.288" transform="translate(-347.143 -122.346)" fill="#fff"/>
      </g>
      <g id="Group_48" data-name="Group 48" transform="translate(0 0)">
        <g id="Group_2" data-name="Group 2" transform="translate(0 0)">
          <g id="Group_1" data-name="Group 1" clip-path="url(#clip-path-3)">
            <path id="Path_1" data-name="Path 1" d="M90.786,246.907h0A90.286,90.286,0,0,1,.5,156.622V101.786a90.286,90.286,0,1,1,180.571,0v54.836A90.286,90.286,0,0,1,90.786,246.907Z" transform="translate(2.624 -6.074)" fill="none" stroke="#24cad2" stroke-miterlimit="10" stroke-width="3"/>
            <path id="Path_2" data-name="Path 2" d="M97.923,245.08h0A81.423,81.423,0,0,1,16.5,163.657V109.871a81.423,81.423,0,1,1,162.847,0v53.786A81.423,81.423,0,0,1,97.923,245.08Z" transform="translate(-4.513 -13.634)" fill="none" stroke="#24cad2" stroke-miterlimit="10" stroke-width="3"/>
            <line id="Line_1" data-name="Line 1" x2="26.808" transform="translate(80.116 29.244)" fill="#fff"/>
          </g>
        </g>
        <g id="Group_4" data-name="Group 4" transform="translate(12.405 15.371)">
          <g id="Mask_Group_3" data-name="Mask Group 3" transform="translate(0)" clip-path="url(#clip-path-4)">
            <rect id="Rectangle_3" data-name="Rectangle 3" width="177.098" height="202.208" transform="translate(-7.545 -15.401)" fill="#24cad2" stroke="#24cad2" stroke-miterlimit="10" stroke-width="2"/>
            <line id="Line_3" data-name="Line 3" x2="26.67" transform="translate(68.867 164.178)" fill="none" stroke="#035f7e" stroke-linecap="round" stroke-miterlimit="10" stroke-width="8"/>
          </g>
        </g>
      </g>
    </g>
  </svg>
  